<?xml version="1.0" standalone="no"?>
<!DOCTYPE svg PUBLIC "-//W3C//DTD SVG 20010904//EN"
 "http://www.w3.org/TR/2001/REC-SVG-20010904/DTD/svg10.dtd">
<svg version="1.0" xmlns="http://www.w3.org/2000/svg"
 width="512.000000pt" height="512.000000pt" viewBox="0 0 512.000000 512.000000"
 preserveAspectRatio="xMidYMid meet">
<metadata>
Created by potrace 1.11, written by Peter Selinger 2001-2013
</metadata>
<g transform="translate(0.000000,512.000000) scale(0.100000,-0.100000)"
fill="#000000" stroke="none">
<path d="M2245 5089 c-481 -62 -949 -266 -1323 -577 -509 -422 -841 -1058
-903 -1726 -16 -174 -6 -464 21 -626 44 -265 115 -488 230 -725 178 -365 437
-676 765 -920 335 -250 702 -405 1125 -475 161 -27 470 -37 635 -21 883 88
1657 621 2044 1404 133 271 215 544 251 842 17 136 14 489 -5 625 -149 1069
-923 1916 -1970 2156 -177 40 -324 54 -565 53 -129 -1 -266 -6 -305 -10z m385
-916 c29 -32 1659 -3122 1662 -3150 5 -65 -32 -113 -90 -113 -33 0 -742 292
-2582 1065 l-55 23 -22 -41 c-12 -23 -105 -199 -206 -392 -102 -192 -184 -351
-183 -352 1 -1 226 91 500 206 l498 208 124 -51 c68 -28 124 -54 124 -57 0 -3
-325 -141 -721 -307 -474 -198 -733 -302 -756 -302 -47 0 -93 45 -93 91 0 24
220 450 827 1602 686 1303 832 1573 857 1589 40 24 83 17 116 -19z"/>
<path d="M2107 3029 c-246 -468 -447 -852 -445 -854 2 -1 287 -120 633 -265
347 -145 864 -361 1150 -481 286 -119 521 -216 523 -214 5 4 -1397 2660 -1405
2662 -4 1 -210 -380 -456 -848z m1364 -1109 c59 -113 108 -210 109 -217 0 -11
-49 -175 -54 -180 -2 -2 -43 15 -92 36 -66 29 -88 43 -86 55 2 9 25 89 51 176
27 88 47 160 46 160 -1 0 -105 -43 -231 -97 -126 -53 -236 -96 -244 -95 -17 1
-231 90 -242 100 -7 7 610 272 625 268 5 -1 58 -94 118 -206z"/>
</g>
</svg>
